# xmcd CD database file
#
# Track frame offsets:
#	150
#	22625
#	44435
#	71810
#	94120
#	127082
#	148465
#	182120
#	210855
#	223575
#	244500
#	265955
#
# Disc length: 3668 seconds
#
# Revision: 0
# Processed by: cddbd v1.5.2PL0 Copyright (c) Steve Scherf et al.
# Submitted via: CDex 1.70beta2
#
DISCID=b20e520c
DTITLE=吉田次郎 - Made In New York
DYEAR=2005
DGENRE=Jazz
TTITLE0=Made In New York
TTITLE1=Upper Manhattan Medical Group
TTITLE2=What's Going On
TTITLE3=One Step Ahead Of You
TTITLE4=Con Alma
TTITLE5=Spinning Wheel
TTITLE6=Nobody Knows The Trouble I Have Seen
TTITLE7=Take Me Home Country Roads
TTITLE8=Bag's Groove
TTITLE9=Solar
TTITLE10=I Wanna Go Home
TTITLE11=Time Slip To My Old Days
EXTD=YEAR: 2005
EXTT0=
EXTT1=
EXTT2=
EXTT3=
EXTT4=
EXTT5=
EXTT6=
EXTT7=
EXTT8=
EXTT9=
EXTT10=
EXTT11=
PLAYORDER=
